Coordinates
version=1
nRows=22
nColumns=24
inDegrees=yes

Units are S.I. units (second, meters, Newtons, ...)
Angles are in degrees.

endheader
time	pelvis_tilt	pelvis_list	pelvis_rotation	pelvis_tx	pelvis_ty	pelvis_tz	hip_flexion_r	hip_adduction_r	hip_rotation_r	knee_angle_r	ankle_angle_r	subtalar_angle_r	mtp_angle_r	hip_flexion_l	hip_adduction_l	hip_rotation_l	knee_angle_l	ankle_angle_l	subtalar_angle_l	mtp_angle_l	lumbar_extension	lumbar_bending	lumbar_rotation
      0.98316667	      0.02780386	     -8.58524938	     -3.76974537	     -0.15111492	      0.99711593	      0.32369434	    -12.83190842	      9.59533468	     -3.36445145	     -8.51525408	      6.20285324	     -4.50312360	     -1.52494837	     24.43201358	     -9.66628415	    -11.82086394	     -2.73277181	     -1.15193467	     -7.79508639	     -7.84142333	    -11.23681598	     10.09671795	     11.24798000
      0.98733333	      0.19427812	     -8.56271268	     -3.86403895	     -0.14525807	      0.99660808	      0.32365016	    -13.06200888	      9.44538981	     -3.37360931	     -9.15427942	      6.37127201	     -4.22677993	     -0.77645005	     24.11014248	     -9.61458892	    -11.55808786	     -2.69764490	     -1.23491032	     -7.99082217	     -7.43802788	    -11.44464253	      9.96406805	     11.46515110
      0.99150000	      0.14738116	     -8.51939110	     -4.09520769	     -0.13929503	      0.99588445	      0.32398138	    -13.03233538	      9.28135467	     -3.22709425	     -9.88834154	      6.56425880	     -4.01361268	     -0.62339938	     24.01355818	     -9.62702927	    -11.47480612	     -2.79980943	     -1.29724371	     -8.03738864	     -7.35705094	    -11.38593658	      9.81956738	     11.44243791
      0.99566667	      0.20687563	     -8.45077186	     -4.28205047	     -0.13336585	      0.99535373	      0.32420045	    -13.09194365	      9.07885717	     -3.14688402	    -10.64745596	      6.71821000	     -3.75096224	     -0.39930637	     23.81557923	     -9.58922103	    -11.34229570	     -2.97460384	     -1.39542281	     -8.20815084	     -7.23601440	    -11.45592828	      9.62553771	     11.57167808
      0.99983333	      0.25360268	     -8.40078195	     -4.44318950	     -0.12746876	      0.99482585	      0.32447047	    -13.13096728	      8.91800554	     -3.00456658	    -11.41251113	      6.83924365	     -3.63216985	     -0.28946070	     23.67664914	     -9.57540598	    -11.18951735	     -3.28701850	     -1.43763123	     -8.35667047	     -7.17687759	    -11.52180109	      9.44692968	     11.59544049
      1.00400000	      0.30848099	     -8.29340294	     -4.64482681	     -0.12149467	      0.99440024	      0.32477615	    -13.14336683	      8.67504899	     -2.89059804	    -12.24176972	      6.92875276	     -3.40653611	     -0.14552848	     23.49608312	     -9.51361983	    -11.10276553	     -3.60637425	     -1.57890403	     -8.59053573	     -7.10046646	    -11.57672659	      9.20031437	     11.66568366
      1.00816667	      0.50650103	     -8.13393247	     -4.81239043	     -0.11542388	      0.99426706	      0.32499357	    -13.30132826	      8.35347370	     -2.87228481	    -13.05037829	      6.84974594	     -3.18649047	      5.82740484	     23.13922412	     -9.37734615	    -11.07412487	     -3.91498057	     -1.82049481	     -8.82922656	     -3.68299416	    -11.77389653	      8.88292713	     11.82886468
      1.01233333	      0.54170554	     -8.01542971	     -4.97243728	     -0.10943827	      0.99389145	      0.32525049	    -13.25321408	      8.11152428	     -2.77514854	    -13.92639417	      6.80680594	     -3.06125331	      5.85573535	     23.01548140	     -9.29029429	    -10.95895935	     -4.35156389	     -2.07313084	     -9.18514163	     -3.65452244	    -11.79376532	      8.62352520	     11.87707586
      1.01650000	      0.60976675	     -7.89068222	     -5.12264148	     -0.10347380	      0.99360212	      0.32551656	    -13.21197103	      7.86201597	     -2.68018512	    -14.84653056	      6.75544701	     -2.92066261	      5.89275695	     22.87236160	     -9.19989402	    -10.87700502	     -4.84814421	     -2.26593041	     -9.47774321	     -3.62936165	    -11.85698721	      8.35401019	     11.87206430
      1.02066667	      0.68207198	     -7.73195861	     -5.26111147	     -0.09744864	      0.99338400	      0.32573939	    -13.14943170	      7.57062123	     -2.63572349	    -15.79756612	      6.61615682	     -2.74819044	      5.95267440	     22.71768331	     -9.06645553	    -10.82405382	     -5.34294623	     -2.56487831	     -9.82453823	     -3.59467564	    -11.90585562	      8.04596707	     11.88080124
      1.02483333	      0.80677261	     -7.55248692	     -5.30119380	     -0.09139883	      0.99325787	      0.32569218	    -13.11810217	      7.25251485	     -2.74115254	    -16.76872369	      6.40872772	     -2.50765992	      6.15259823	     22.51914241	     -8.85584484	    -10.66020393	     -5.82367974	     -2.96935603	    -10.27583170	     -3.48298338	    -11.99844380	      7.72700482	     11.94080062
      1.02900000	      0.86112405	     -7.39385030	     -5.41717365	     -0.08541942	      0.99309580	      0.32589248	    -12.97087978	      6.97090836	     -2.69585555	    -17.81338221	      6.15229612	     -2.41353608	      6.26704366	     22.41047016	     -8.72324884	    -10.63229557	     -6.38281617	     -3.26032518	    -10.61659996	     -3.42741039	    -12.03504862	      7.42618434	     11.84282033
      1.03316667	      0.91919413	     -7.20893309	     -5.47905311	     -0.07939694	      0.99296804	      0.32596597	    -12.79755046	      6.66145723	     -2.75450675	    -18.89259776	      5.82073481	     -2.28113943	      6.41601005	     22.30939187	     -8.53947409	    -10.57706857	     -6.94544637	     -3.63681616	    -11.00520183	     -3.36129717	    -12.05416453	      7.09432025	     11.77254776
      1.03733333	      0.98659445	     -7.04331042	     -5.32111785	     -0.07343335	      0.99276506	      0.32538729	    -12.59466518	      6.37118760	     -3.12344887	    -20.01656670	      5.45534985	     -1.98364406	      7.09449584	     22.26306077	     -8.25349522	    -10.18561683	     -7.52349374	     -4.05259169	    -11.64067965	     -3.06964069	    -12.08061328	      6.86205182	     11.62379880
      1.04150000	      1.01929155	     -6.85140073	     -5.38664024	     -0.06741982	      0.99271178	      0.32555545	    -12.32591491	      6.06733804	     -3.15008647	    -21.18897062	      4.94698632	     -2.00262266	      7.25429641	     22.20218164	     -8.09127475	    -10.26073320	     -8.12962015	     -4.40402094	    -11.85338159	     -3.00993801	    -12.07511855	      6.51324683	     11.46171083
      1.04566667	      1.00551933	     -6.68850153	     -5.17760795	     -0.06154366	      0.99241555	      0.32480140	    -11.94097808	      5.77908311	     -3.60287872	    -22.46349070	      4.49373860	     -1.70141593	      8.32386392	     22.28034397	     -7.79276317	     -9.83468059	     -8.75906536	     -4.79830532	    -12.53271813	     -2.62408901	    -12.01649911	      6.31832081	     11.19442044
      1.04983333	      0.82868384	     -6.51814437	     -4.93975182	     -0.05556191	      0.99189504	      0.32411586	    -11.35251081	      5.51316206	     -4.08459903	    -23.78561023	      3.89815962	     -1.58438862	     11.85233959	     22.56616096	     -7.51225756	     -9.49135590	     -9.45359684	     -5.18619520	    -12.92804963	     -1.46164172	    -11.74331961	      6.12016396	     10.73414763
      1.05400000	      0.96490419	     -6.30444832	     -4.97326449	     -0.04964683	      0.99213926	      0.32420280	    -11.07418853	      5.16852884	     -4.14873619	    -25.11163500	      3.14348215	     -1.70880141	     11.97156608	     22.38104005	     -7.32443805	     -9.63550812	    -10.03964039	     -5.42395406	    -13.05185549	     -1.42533723	    -11.87744304	      5.73678380	     10.63030176
      1.05816667	      1.04037003	     -6.07544181	     -4.92240836	     -0.04373895	      0.99225914	      0.32403066	    -10.67764756	      4.80161212	     -4.36840125	    -26.52508894	      2.38095731	     -1.73402701	     12.11327239	     22.28518865	     -7.08206279	     -9.68478906	    -10.63229016	     -5.66335091	    -13.20702702	     -1.38585011	    -11.92821139	      5.37225168	     10.49869991
      1.06233333	      0.88317846	     -5.88476417	     -4.52752007	     -0.03790591	      0.99177456	      0.32283123	     -9.97812266	      4.47762892	     -5.06898210	    -28.04849067	      1.67579849	     -1.54822138	     13.22452702	     22.57488709	     -6.69765845	     -9.18178357	    -11.31994371	     -5.97737979	    -13.75717022	     -1.11398934	    -11.69625521	      5.20941539	      9.97523628
      1.06650000	      0.92802560	     -5.62733579	     -4.39683485	     -0.03203654	      0.99184728	      0.32241251	     -9.46208825	      4.05950189	     -5.41511637	    -29.58644998	      0.78894313	     -1.64523596	     19.65163350	     22.52052762	     -6.39498603	     -9.19178343	    -11.90701331	     -6.14912593	    -13.90455600	      0.23438758	    -11.71532380	      4.86573326	      9.49457650
      1.07066667	      0.88362932	     -5.35185975	     -4.24941523	     -0.02623293	      0.99177039	      0.32186897	     -8.78972420	      3.61410845	     -5.79330069	    -31.23650763	     -0.06713637	     -1.67693337	     19.71508733	     22.56023346	     -6.05768889	     -9.13153604	    -12.47788128	     -6.30212701	    -14.16211850	      0.25830052	    -11.62878310	      4.50203320	      9.37311451
